<svg xmlns="http://www.w3.org/2000/svg" version="1.1" xmlns:xlink="http://www.w3.org/1999/xlink" xmlns:svgjs="http://svgjs.com/svgjs" width="512" height="512" x="0" y="0" viewBox="0 0 30.051 30.051" style="enable-background:new 0 0 512 512" xml:space="preserve" class=""><g><path d="m19.982 14.438-6.24-4.536a.752.752 0 0 0-1.195.607v9.069a.75.75 0 0 0 1.195.606l6.24-4.532a.747.747 0 0 0 0-1.214z" fill="#FF42A5" data-original="#000000" class=""></path><path d="M15.026.002C6.726.002 0 6.728 0 15.028c0 8.297 6.726 15.021 15.026 15.021 8.298 0 15.025-6.725 15.025-15.021.001-8.3-6.727-15.026-15.025-15.026zm0 27.54c-6.912 0-12.516-5.601-12.516-12.514 0-6.91 5.604-12.518 12.516-12.518 6.911 0 12.514 5.607 12.514 12.518.001 6.913-5.603 12.514-12.514 12.514z" fill="#000000" data-original="#000000" class=""></path></g></svg>