<svg xmlns="http://www.w3.org/2000/svg" width="85" height="85" viewBox="0 0 85 85" fill="none">
  <g clip-path="url(#clip0_1_124)">
    <path d="M42.8761 0C19.6866 0 0.822998 18.9344 0.822998 42.2069C0.822998 65.4794 19.6866 84.4138 42.8761 84.4138C66.0656 84.4138 84.9292 65.4794 84.9292 42.2069C84.9292 18.9344 66.0656 0 42.8761 0ZM59.594 43.6856L35.0631 59.5132C34.7756 59.7003 34.4436 59.7932 34.1151 59.7932C33.8276 59.7932 33.5367 59.7209 33.2767 59.5785C32.7119 59.2694 32.3628 58.6785 32.3628 58.0345V26.3793C32.3628 25.7353 32.7119 25.1444 33.2767 24.8353C33.8311 24.5296 34.5258 24.5484 35.0631 24.9006L59.594 40.7282C60.0937 41.051 60.3983 41.6092 60.3983 42.2069C60.3983 42.8046 60.0937 43.3626 59.594 43.6856Z" fill="white"/>
  </g>
  <defs>
    <clipPath id="clip0_1_124">
      <rect width="84.1062" height="84.4138" fill="white" transform="translate(0.822998)"/>
    </clipPath>
  </defs>
</svg>